<?xml version="1.0" encoding="UTF-8" standalone="no"?>
<!-- Created with Inkscape (http://www.inkscape.org/) -->

<svg
   xmlns:dc="http://purl.org/dc/elements/1.1/"
   xmlns:cc="http://creativecommons.org/ns#"
   xmlns:rdf="http://www.w3.org/1999/02/22-rdf-syntax-ns#"
   xmlns:svg="http://www.w3.org/2000/svg"
   xmlns="http://www.w3.org/2000/svg"
   xmlns:sodipodi="http://sodipodi.sourceforge.net/DTD/sodipodi-0.dtd"
   xmlns:inkscape="http://www.inkscape.org/namespaces/inkscape"
   width="744.09448819"
   height="1052.3622047"
   id="svg2"
   version="1.1"
   inkscape:version="0.48.1 r9760"
   sodipodi:docname="img_logo.svg"
   inkscape:export-filename="/Users/beth/sifteo/thundercracker/emulator/resources/img_logo.png"
   inkscape:export-xdpi="300.01077"
   inkscape:export-ydpi="300.01077">
  <defs
     id="defs4">
    <filter
       inkscape:collect="always"
       id="filter3963">
      <feGaussianBlur
         inkscape:collect="always"
         stdDeviation="1.3591305"
         id="feGaussianBlur3965" />
    </filter>
    <clipPath
       clipPathUnits="userSpaceOnUse"
       id="clipPath3977">
      <path
         style="font-size:40px;font-style:normal;font-variant:normal;font-weight:normal;font-stretch:normal;text-align:start;line-height:125%;letter-spacing:0px;word-spacing:0px;writing-mode:lr-tb;text-anchor:start;opacity:0.27088037;fill:#000000;fill-opacity:1;stroke:#000000;stroke-width:3.5;stroke-linecap:round;stroke-linejoin:round;stroke-miterlimit:4;stroke-opacity:1;stroke-dasharray:none;filter:url(#filter3808);font-family:DymaxionScript;-inkscape-font-specification:DymaxionScript"
         d="m 127.97766,486.67411 c -1.61582,9e-5 -3.32415,0.11293 -5.09375,0.34375 -1.76968,0.23091 -3.55969,0.60094 -5.40624,1.0625 -6.54002,1.69276 -12.02065,4.32135 -16.40625,7.9375 -4.385675,3.61631 -6.675425,7.48469 -6.906255,11.5625 l 0,0.21875 0,0.25 0,0.21875 0,0.21875 c 0,3.4624 1.27345,6.67004 3.8125,9.59375 2.539025,2.84686 5.328615,5.41058 8.406255,7.71875 1.69268,1.23109 3.35296,2.39162 4.96875,3.46875 1.61573,1.07722 3.00211,2.07674 4.15625,3 1.84656,1.38496 3.28098,2.88427 4.28125,4.5 1.07713,1.53884 1.75469,3.08622 2.06249,4.625 0.077,0.38472 0.12498,0.72351 0.125,1.03125 0.0767,0.30781 0.0937,0.62976 0.0937,0.9375 -3e-5,0.84637 -0.11293,1.6849 -0.34375,2.53125 -0.15393,0.76941 -0.44462,1.5599 -0.90624,2.40625 -1.46192,2.616 -3.5571,4.61506 -6.25,6 -2.61603,1.30801 -5.40558,2.19461 -8.40625,2.65625 -1.23106,0.23082 -2.50451,0.43996 -3.8125,0.59375 -1.30801,0.077 -2.533425,0.125 -3.687505,0.125 l -27.937485,0 0,5.1875 27.937485,0 c 6.386095,0 11.883515,-1.0476 16.500005,-3.125 4.61643,-2.07741 8.00186,-5.01114 10.15624,-8.78125 0.69242,-1.23104 1.1922,-2.45643 1.5,-3.6875 0.30757,-1.23103 0.46869,-2.45644 0.46875,-3.6875 0.0769,-2.76985 -0.63192,-5.49455 -2.09375,-8.1875 -1.46191,-2.6929 -3.62198,-5.12687 -6.46874,-7.28125 -0.84639,-0.69244 -2.11985,-1.57902 -3.8125,-2.65625 -1.69274,-1.07713 -3.48274,-2.35059 -5.40625,-3.8125 -2.00048,-1.53878 -3.9347,-3.16781 -5.78125,-4.9375 -1.84661,-1.84653 -3.12006,-3.73266 -3.812505,-5.65625 -0.23082,-0.46159 -0.3605,-0.89649 -0.4375,-1.28125 -0.077,-0.46159 -0.12503,-0.9133 -0.125,-1.375 -3e-5,-0.0768 -3e-5,-0.173 0,-0.25 -3e-5,-0.077 -3e-5,-0.0937 0,-0.0937 -3e-5,-0.0767 -3e-5,-0.12494 0,-0.125 0.0769,-0.84628 0.35082,-1.7329 0.812505,-2.65625 0.46161,-0.92324 1.09113,-1.8747 1.9375,-2.875 1.61573,-1.76957 3.82385,-3.52598 6.59375,-5.21875 2.8468,-1.69263 6.18419,-3.03095 10.03125,-4.03125 1.76961,-0.38464 3.38183,-0.65843 4.84374,-0.8125 1.53878,-0.23082 2.9732,-0.34366 4.28125,-0.34375 2.00042,9e-5 3.70875,0.20911 5.09375,0.59375 1.38488,0.30783 2.44927,0.75954 3.21875,1.375 0.46159,0.30783 0.80043,0.69469 1.03125,1.15625 0.23082,0.38478 0.34369,0.83649 0.34375,1.375 -6e-5,1.5389 -0.67762,2.97332 -2.0625,4.28125 -1.30804,1.30807 -2.79055,2.48539 -4.40625,3.5625 -1.00028,0.61557 -1.95177,1.16341 -2.875,1.625 -0.92335,0.4617 -1.69701,0.84853 -2.3125,1.15625 l 2.3125,4.71875 c 0.46159,-0.23077 0.89649,-0.45668 1.28125,-0.6875 0.46158,-0.23077 0.9133,-0.45668 1.375,-0.6875 2.92372,-1.6157 5.63159,-3.54991 8.09375,-5.78125 2.539,-2.23122 3.78119,-4.90784 3.78125,-8.0625 -6e-5,-1.30793 -0.24271,-2.5333 -0.78125,-3.6875 -0.53866,-1.23098 -1.3604,-2.27858 -2.4375,-3.125 -1.30805,-1.07711 -2.96835,-1.85077 -4.96875,-2.3125 -1.92356,-0.5384 -4.10043,-0.81241 -6.5625,-0.8125 z m 218.78125,21.59375 -13.28125,46.625 c -0.077,0.30777 -0.173,0.64655 -0.25,1.03125 -0.077,0.30777 -0.0937,0.64656 -0.0937,1.03125 0,0.24402 0.007,0.48526 0.0312,0.71875 l -26.21875,0 c -0.6925,0 -1.28839,-0.2571 -1.75,-0.71875 -0.3849,-0.46164 -0.56253,-0.9614 -0.5625,-1.5 -3e-5,-0.077 -3e-5,-0.14175 0,-0.21875 -3e-5,-0.077 -3e-5,-0.14175 0,-0.21875 -3e-5,-0.077 -3e-5,-0.173 0,-0.25 0.077,-0.077 0.0937,-0.14175 0.0937,-0.21875 l 6.59375,-22.84375 -5.875,0 c -0.92332,1.38497 -1.97091,2.88427 -3.125,4.5 -1.15414,1.53883 -2.36272,3.10302 -3.59375,4.71875 -0.61555,0.84637 -1.24506,1.68493 -1.9375,2.53125 -0.69249,0.84637 -1.40131,1.71616 -2.09375,2.5625 -1.30802,1.61579 -2.64634,3.17995 -4.03125,4.71875 -1.30802,1.46189 -2.53341,2.78339 -3.6875,3.9375 -1.23106,1.0772 -2.3267,1.81961 -3.25,2.28125 -0.92329,0.46165 -1.69699,0.71875 -2.3125,0.71875 l -0.4375,0 c -0.077,0 -0.18997,-0.048 -0.34375,-0.125 -0.38473,-0.15387 -0.70667,-0.37973 -0.9375,-0.6875 -0.15382,-0.30774 -0.21875,-0.67778 -0.21875,-1.0625 l 0,-0.21875 0,-0.21875 0,-0.125 c 0.0771,-0.077 0.0938,-0.14175 0.0938,-0.21875 l 6.71875,-23.3125 -5.21875,0 -6.6875,23.3125 c -0.077,0.23082 -0.14175,0.45667 -0.21875,0.6875 l 0,0.46875 c -0.077,0.1539 -0.125,0.33168 -0.125,0.5625 l 0,0.5625 c 0,0.12748 0.0247,0.25082 0.0312,0.375 l -27.96875,0 c -1.46188,0 -2.67049,-0.48296 -3.59375,-1.40625 -0.84637,-0.92329 -1.25,-2.03573 -1.25,-3.34375 l 0,-0.90625 c 0.077,-0.30774 0.14175,-0.62973 0.21875,-0.9375 l 4.03125,-14.0625 9.59375,0 1.5,-5.3125 -9.59375,0 4.75,-16.53125 -5.3125,0 -4.75,16.53125 -8.21875,0 -43.625,0 6.7188,-23.3125 -5.3125,0 -6.71875,23.3125 -6.5625,0 -1.5,5.3125 6.5625,0 -8.0625,28.5 c -0.15378,0.53859 -0.26675,1.05515 -0.34375,1.59375 -0.077,0.46164 -0.125,0.96141 -0.125,1.5 0,2.23128 0.72561,4.11742 2.1875,5.65625 1.53881,1.53881 3.58595,2.3125 6.125,2.3125 l 0.21875,0 0.25,0 c 3.07762,-0.1539 6.01135,-1.33122 8.78125,-3.5625 2.76985,-2.15436 4.62473,-4.87903 5.625,-8.1875 0.53857,-1.84659 0.97344,-3.71592 1.28125,-5.5625 0.30786,-1.9235 0.46872,-3.82647 0.46875,-5.75 -3e-5,-2.92375 -0.43494,-5.80942 -1.28125,-8.65625 -0.76945,-2.84679 -2.15582,-5.45855 -4.15625,-7.84375 l 37.96875,0 8.21875,0 c -0.23082,0.76944 -0.52156,1.67287 -0.90625,2.75 -0.30777,1.07719 -0.67781,2.18967 -1.0625,3.34375 -0.30778,0.92332 -0.59851,1.90603 -0.90625,2.90625 -0.23083,0.92332 -0.45668,1.87479 -0.6875,2.875 -0.1539,0.92332 -0.31496,1.85798 -0.46875,2.78125 -0.15382,0.92329 -0.21875,1.77866 -0.21875,2.625 0,2.38518 0.61269,4.43232 1.84375,6.125 1.23104,1.61576 3.50403,2.4375 6.8125,2.4375 l 34.0625,0 c 0.3847,0.077 0.77152,0.0937 1.15625,0.0937 1.07716,0 2.18963,-0.17781 3.34375,-0.5625 1.15411,-0.3847 2.33144,-0.94933 3.5625,-1.71875 0.53857,-0.3847 1.13446,-0.8196 1.75,-1.28125 0.61552,-0.53857 1.18016,-1.0864 1.71875,-1.625 1.92351,-1.84658 3.74479,-3.74952 5.4375,-5.75 1.7696,-2.07738 3.49476,-4.17256 5.1875,-6.25 0.30775,-0.46161 0.59844,-0.86528 0.90625,-1.25 0.38466,-0.46162 0.7547,-0.89652 1.0625,-1.28125 -0.1539,0.5386 -0.37976,1.21616 -0.6875,2.0625 -0.23085,0.76942 -0.50476,1.65604 -0.8125,2.65625 -0.23085,0.61555 -0.48793,1.32436 -0.71875,2.09375 -0.23085,0.69249 -0.40871,1.37006 -0.5625,2.0625 -0.1539,0.84637 -0.31497,1.66811 -0.46875,2.4375 -0.077,0.76942 -0.0938,1.49503 -0.0937,2.1875 -3e-5,1.69271 0.40363,3.14397 1.25,4.375 0.84631,1.15412 2.44174,1.75 4.75,1.75 l 36.71875,0 27.125,0 0.0312,-0.125 c 0.0224,0.006 0.0397,-0.006 0.0625,0 0.38472,0.077 0.86769,0.125 1.40625,0.125 1.07717,0 2.36744,-0.2739 3.90625,-0.8125 1.61576,-0.61551 3.38896,-1.88896 5.3125,-3.8125 l 2.875,-2.875 c 2.00046,-2.00046 3.46834,-5.18286 6.46875,-6.46875 l 1.5,-1.5 1.40625,-1.375 -0.59375,1.71875 c -0.1539,0.61554 -0.33167,1.29311 -0.5625,2.0625 -0.23085,0.5386 -0.43997,1.13449 -0.59375,1.75 -0.1539,0.5386 -0.31496,1.08644 -0.46875,1.625 -0.15379,0.69247 -0.26675,1.32198 -0.34375,1.9375 -0.077,0.61555 -0.0937,1.22823 -0.0937,1.84375 0,1.69271 0.40363,3.12714 1.25,4.28125 0.84634,1.07717 2.45857,1.625 4.84375,1.625 l 42.375,0 43.125,0 41.125,0 0.59375,0 0,-0.0312 c 1.53859,-0.1235 2.98476,-0.72069 4.28125,-1.8125 1.53881,-1.23103 2.55515,-2.71354 3.09375,-4.40625 l 5.65625,-19.59375 13.75,0 c -0.23085,0.69249 -0.55281,1.54786 -0.9375,2.625 -0.30778,1.00027 -0.64655,2.14396 -1.03125,3.375 -0.30777,0.84637 -0.62975,1.74979 -0.9375,2.75 -0.23082,1.00025 -0.45667,1.99979 -0.6875,3 -0.23082,0.92332 -0.40872,1.85799 -0.5625,2.78125 -0.077,0.9233 -0.125,1.80991 -0.125,2.65625 0,2.38518 0.61268,4.43232 1.84375,6.125 1.23103,1.69271 3.50403,2.53125 6.8125,2.53125 l 32.78125,0 1.5,-5.1875 -32.78125,0 c -1.46189,0 -2.63924,-0.48296 -3.5625,-1.40625 -0.92332,-1.00021 -1.40628,-2.16073 -1.40625,-3.46875 -3e-5,-0.30774 -3e-5,-0.55043 0,-0.78125 0.077,-0.30774 0.173,-0.62973 0.25,-0.9375 l 4.03125,-14.0625 6.46875,0 1.5,-5.3125 -25.40625,0 1.625,-5.90625 -5.1875,0 -8.90625,30.8125 c -0.077,0.23082 -0.18996,0.45667 -0.34375,0.6875 -0.15387,0.15378 -0.33167,0.298 -0.5625,0.375 l -0.25,0 -36,0 c 2.6929,-2.30823 4.62711,-4.79025 5.78125,-7.40625 1.23104,-2.61597 2.29543,-5.4536 3.21875,-8.53125 l -5.3125,0 c -0.1539,0.53863 -0.33167,1.10323 -0.5625,1.71875 -0.1539,0.53859 -0.31497,1.13448 -0.46875,1.75 -1.15415,3.07764 -2.81443,5.91528 -4.96875,8.53125 -2.07744,2.616 -4.96311,3.9375 -8.65625,3.9375 -2.616,0 -4.40603,-0.82174 -5.40625,-2.4375 -1.00024,-1.69268 -1.5,-3.57881 -1.5,-5.65625 l 0,-0.5625 0,-0.59375 c 0.077,-0.84634 0.18996,-1.63683 0.34375,-2.40625 0.15387,-0.76939 0.28372,-1.4782 0.4375,-2.09375 0.3847,-1.30796 0.8196,-2.46848 1.28125,-3.46875 0.46165,-1.07714 1.00945,-1.86763 1.625,-2.40625 0.3847,-0.30786 0.77153,-0.51675 1.15625,-0.59375 0.46165,-0.15378 0.91336,-0.26675 1.375,-0.34375 0.15387,-0.077 0.36293,-0.0937 0.59375,-0.0937 0.23079,3e-5 0.45667,3e-5 0.6875,0 l 31.03125,0 1.5,-5.3125 -31.03125,0 c -1.69272,3e-5 -3.24006,0.22588 -4.625,0.6875 -1.30802,0.38475 -2.51658,0.99744 -3.59375,1.84375 -1.61576,1.2311 -2.74503,2.73039 -3.4375,4.5 -0.69247,1.69274 -1.30515,3.46595 -1.84375,5.3125 -0.30777,1.0772 -0.56496,2.14159 -0.71875,3.21875 -0.15382,1.07719 -0.21875,2.17284 -0.21875,3.25 -0.062,2.66737 0.49924,5.03902 1.6875,7.15625 l -26.625,0 -3.34375,0 c -1.46189,0 -2.63921,-0.48296 -3.5625,-1.40625 -0.84634,-0.92329 -1.28125,-2.03573 -1.28125,-3.34375 l 0,-0.90625 c 0.077,-0.30774 0.14175,-0.62973 0.21875,-0.9375 l 4.0625,-14.0625 9.5625,0 1.5,-5.3125 -9.5625,0 4.71875,-16.53125 -5.3125,0 -4.71875,16.53125 -9.46875,0 -1.5,5.3125 9.46875,0 c -0.23082,0.76944 -0.5528,1.67287 -0.9375,2.75 -0.30777,1.07719 -0.64655,2.18967 -1.03125,3.34375 -0.30777,0.92332 -0.62973,1.90603 -0.9375,2.90625 -0.23082,0.92332 -0.45668,1.87479 -0.6875,2.875 -0.15387,0.92332 -0.31497,1.85798 -0.46875,2.78125 -0.15383,0.92329 -0.21875,1.77866 -0.21875,2.625 0,1.20377 0.15519,2.34761 0.46875,3.375 l -29.34375,0 c -0.6925,0 -1.25714,-0.2571 -1.71875,-0.71875 -0.38461,-0.46164 -0.56253,-0.9614 -0.5625,-1.5 -3e-5,-0.077 -3e-5,-0.14175 0,-0.21875 -3e-5,-0.077 -3e-5,-0.14175 0,-0.21875 -3e-5,-0.077 -3e-5,-0.173 0,-0.25 0.077,-0.077 0.0937,-0.14175 0.0937,-0.21875 l 6.59375,-22.84375 -22.28125,0 c -3.61622,0 -6.32412,1.38641 -8.09375,4.15625 -1.76963,2.76991 -3.10796,5.78531 -4.03125,9.09375 -0.38469,1.30802 -0.72348,2.6776 -1.03125,4.0625 -0.23083,1.30802 -0.50473,2.48533 -0.8125,3.5625 -0.077,0.38472 -0.14175,0.72351 -0.21875,1.03125 -0.077,0.23082 -0.173,0.50476 -0.25,0.8125 -0.077,0.1539 -0.14175,0.36292 -0.21875,0.59375 l 0,0.4375 c -0.077,0.23083 -0.125,0.48793 -0.125,0.71875 l 0,0.4375 c 0,0.36043 0.0412,0.71376 0.0937,1.0625 l -20.96875,0 -3.03125,0 c -0.61555,0 -1.11531,-0.20902 -1.5,-0.59375 -0.38461,-0.38469 -0.59375,-0.83641 -0.59375,-1.375 l 0,-0.25 0,-0.21875 0,-0.125 c 0.077,-0.077 0.125,-0.14175 0.125,-0.21875 l 13.375,-46.625 z m -195.72321,4.21875 c -1.46189,5e-5 -2.71851,0.49982 -3.71875,1.5 -1.00021,1.00027 -1.5,2.22567 -1.5,3.6875 0,1.38499 0.49979,2.59357 1.5,3.59375 1.00024,1.00027 2.25686,1.50003 3.71875,1.5 1.46188,3e-5 2.68726,-0.49973 3.6875,-1.5 1.00024,-1.00018 1.5,-2.20876 1.5,-3.59375 0,-1.46183 -0.49976,-2.68723 -1.5,-3.6875 -1.00024,-1.00018 -2.22562,-1.49995 -3.6875,-1.5 z m -6.02679,17.59375 -7.03125,24.8125 c 0,0.077 -0.048,0.18996 -0.125,0.34375 0,0.15379 -0.0168,0.26675 -0.0937,0.34375 0,0.23083 -0.048,0.45668 -0.125,0.6875 l 0,0.6875 c 0,1.69271 0.54784,3.12714 1.625,4.28125 1.0772,1.07717 2.52841,1.625 4.375,1.625 l 31.625,0 1.5,-5.1875 -31.625,0 c -0.61552,0 -1.11528,-0.20902 -1.5,-0.59375 -0.38461,-0.38469 -0.5625,-0.83641 -0.5625,-1.375 l 0,-0.25 0,-0.21875 0,-0.125 c 0.077,-0.077 0.0937,-0.14175 0.0937,-0.21875 l 7.15625,-24.8125 z m 249.90625,6.8125 -18.375,18.21875 -0.21875,0.25 c -0.077,0.077 -0.18997,0.14175 -0.34375,0.21875 -0.30778,0.30778 -0.64656,0.62975 -1.03125,0.9375 -0.3847,0.30777 -0.77155,0.55042 -1.15625,0.78125 -0.23082,0.077 -0.45667,0.173 -0.6875,0.25 -0.23082,0.077 -0.48792,0.125 -0.71875,0.125 l -0.4375,0 c -0.077,0 -0.18996,-0.048 -0.34375,-0.125 -0.46164,-0.15387 -0.84848,-0.47586 -1.15625,-0.9375 -0.30786,-0.46165 -0.46875,-0.96141 -0.46875,-1.5 l 0,-0.34375 c 0,-0.15378 0.048,-0.26675 0.125,-0.34375 l 4.375,-15.21875 c 0.23082,-0.84631 0.63449,-1.4422 1.25,-1.75 0.61552,-0.30786 1.32433,-0.43747 2.09375,-0.4375 z m -207.125,2.1875 c 2.3082,2.07744 3.92043,4.46333 4.84375,7.15625 1.00021,2.69295 1.49997,5.51376 1.5,8.4375 0,0.5386 -0.048,1.10324 -0.125,1.71875 0,0.5386 -0.0168,1.08644 -0.0937,1.625 -0.077,1.15412 -0.23793,2.28338 -0.46875,3.4375 -0.23085,1.07716 -0.55281,2.17283 -0.9375,3.25 -0.5386,1.69271 -1.53814,3.24007 -3,4.625 -1.46189,1.38494 -3.18705,2.0625 -5.1875,2.0625 -1.38494,0 -2.44936,-0.38683 -3.21875,-1.15625 -0.76942,-0.84634 -1.15625,-1.84589 -1.15625,-3 l 0,-0.8125 c 0.077,-0.30778 0.14175,-0.59848 0.21875,-0.90625 z"
         id="path3979"
         inkscape:connector-curvature="0"
         sodipodi:nodetypes="ccccccccscccccccccccccsccssccccccccccccccccccccccccccccccccccccccccscsccccccccccsccccssccscccccccccsscscscccccccccccccccccccscscccccccccccscccscscssccccccccccccccsccccscssscccccccscsccccccccccccccscsccscccccccccccccccccccccscscccccccccccccccccccccscscccccccccccccscccscscccccccsscccccccssccscsccccccccscccscccccccscsccscscccccccccccccssccssccccccccccccsscscccc" />
    </clipPath>
  </defs>
  <sodipodi:namedview
     id="base"
     pagecolor="#ffffff"
     bordercolor="#666666"
     borderopacity="1.0"
     inkscape:pageopacity="0"
     inkscape:pageshadow="2"
     inkscape:zoom="0.7"
     inkscape:cx="214.31763"
     inkscape:cy="724.9395"
     inkscape:document-units="px"
     inkscape:current-layer="layer1"
     showgrid="false"
     showguides="true"
     inkscape:guide-bbox="true"
     inkscape:window-width="1623"
     inkscape:window-height="869"
     inkscape:window-x="568"
     inkscape:window-y="442"
     inkscape:window-maximized="0" />
  <metadata
     id="metadata7">
    <rdf:RDF>
      <cc:Work
         rdf:about="">
        <dc:format>image/svg+xml</dc:format>
        <dc:type
           rdf:resource="http://purl.org/dc/dcmitype/StillImage" />
        <dc:title></dc:title>
      </cc:Work>
    </rdf:RDF>
  </metadata>
  <g
     inkscape:label="Layer 1"
     inkscape:groupmode="layer"
     id="layer1">
    <path
       style="font-size:40px;font-style:normal;font-variant:normal;font-weight:normal;font-stretch:normal;text-align:start;line-height:125%;letter-spacing:0px;word-spacing:0px;writing-mode:lr-tb;text-anchor:start;fill:#000000;fill-opacity:1;stroke:#000000;stroke-width:4.14283991;stroke-linecap:round;stroke-linejoin:round;stroke-miterlimit:4;stroke-opacity:1;stroke-dasharray:none;filter:url(#filter3808);font-family:DymaxionScript;-inkscape-font-specification:DymaxionScript"
       d="m 131.31411,69.852673 c -1.9126,1.1e-4 -3.93469,0.13367 -6.02931,0.40689 -2.09472,0.27332 -4.2135,0.71131 -6.3992,1.25764 -7.74121,2.00367 -14.22846,5.11505 -19.419564,9.39537 -5.19118,4.28052 -7.90148,8.8594 -8.17471,13.68617 l 0,0.25893 0,0.29592 0,0.25892 0,0.25893 c 0,4.09833 1.50734,7.895117 4.51274,11.355817 3.00535,3.36974 6.307304,6.40433 9.950214,9.13644 2.00357,1.4572 3.96879,2.83089 5.88135,4.10585 1.91249,1.27507 3.55351,2.45817 4.91962,3.55101 2.18572,1.63933 3.8836,3.41402 5.06759,5.32651 1.27496,1.82147 2.07697,3.65306 2.4413,5.47446 0.0911,0.45538 0.14793,0.8564 0.14796,1.22066 0.0908,0.36435 0.11091,0.74543 0.11091,1.10969 -4e-5,1.00182 -0.13367,1.99436 -0.40689,2.99616 -0.1822,0.91073 -0.52628,1.84641 -1.07269,2.8482 -1.73042,3.09648 -4.21042,5.46271 -7.39792,7.10202 -3.09652,1.54825 -6.39842,2.59769 -9.95022,3.14411 -1.45716,0.27322 -2.96451,0.52077 -4.51273,0.70281 -1.548254,0.0911 -2.998734,0.14796 -4.364784,0.14796 l -33.06873,0 0,6.14028 33.06873,0 c 7.559014,0 14.066144,-1.24001 19.530534,-3.69897 5.46432,-2.45896 9.47155,-5.93153 12.02162,-10.39409 0.8196,-1.45714 1.41117,-2.9076 1.7755,-4.36477 0.36406,-1.45714 0.55478,-2.90761 0.55485,-4.36478 0.091,-3.27859 -0.74799,-6.50373 -2.47831,-9.69129 -1.73041,-3.1875 -4.28722,-6.06851 -7.65684,-8.61858 -1.00185,-0.81962 -2.5092,-1.86904 -4.51274,-3.14412 -2.00364,-1.27497 -4.12241,-2.78232 -6.39921,-4.51274 -2.3679,-1.82141 -4.65738,-3.74964 -6.84308,-5.84436 -2.18577,-2.18568 -3.693124,-4.41824 -4.512744,-6.695127 -0.27321,-0.54637 -0.42671,-1.06115 -0.51785,-1.51657 -0.0911,-0.54637 -0.148,-1.08105 -0.14796,-1.62755 -4e-5,-0.0909 -4e-5,-0.20477 0,-0.29592 -4e-5,-0.0911 -4e-5,-0.11091 0,-0.11091 -4e-5,-0.0908 -4e-5,-0.14788 0,-0.14795 0.091,-1.00172 0.41525,-2.05118 0.96173,-3.14412 0.54639,-1.09281 1.29154,-2.21903 2.293364,-3.40305 1.91249,-2.09459 4.52617,-4.17359 7.80481,-6.17727 3.36967,-2.00351 7.32003,-3.58764 11.87368,-4.77166 2.09463,-0.45529 4.00296,-0.77937 5.73338,-0.96174 1.82141,-0.27321 3.51928,-0.40678 5.06758,-0.40688 2.36784,1e-4 4.38993,0.24752 6.02931,0.7028 1.63924,0.36437 2.89913,0.89905 3.80994,1.62755 0.54637,0.36436 0.94744,0.82228 1.22065,1.36861 0.27322,0.45545 0.40682,0.99013 0.40689,1.62755 -7e-5,1.82154 -0.80208,3.51942 -2.44132,5.06758 -1.54828,1.54832 -3.30308,2.94188 -5.21553,4.21682 -1.184,0.72863 -2.31025,1.37709 -3.40305,1.92346 -1.09294,0.5465 -2.0087,1.00438 -2.73724,1.36862 l 2.73724,5.58543 c 0.54637,-0.27315 1.06115,-0.54056 1.51657,-0.81377 0.54636,-0.27316 1.08105,-0.54056 1.62755,-0.81377 3.46071,-1.91246 6.66593,-4.20192 9.58031,-6.84309 3.00534,-2.64102 4.47568,-5.80925 4.47575,-9.54332 -7e-5,-1.54816 -0.28729,-2.99859 -0.92474,-4.36478 -0.63759,-1.45707 -1.61026,-2.69709 -2.88519,-3.69897 -1.5483,-1.27494 -3.51354,-2.19069 -5.88135,-2.73723 -2.27686,-0.63729 -4.85355,-0.96162 -7.76783,-0.96173 z M 390.27859,95.412513 374.558,150.60106 c -0.0911,0.3643 -0.20478,0.7653 -0.29592,1.22066 -0.0911,0.36429 -0.11091,0.76531 -0.11091,1.22065 0,0.28884 0.008,0.57439 0.0369,0.85077 l -31.03431,0 c -0.81969,0 -1.52503,-0.30432 -2.07142,-0.85077 -0.45559,-0.54642 -0.66585,-1.13797 -0.66581,-1.7755 -4e-5,-0.0911 -4e-5,-0.16778 0,-0.25893 -4e-5,-0.0911 -4e-5,-0.16778 0,-0.25892 -4e-5,-0.0912 -4e-5,-0.20478 0,-0.29592 0.0911,-0.0911 0.11091,-0.16779 0.11091,-0.25893 l 7.80481,-27.03943 -6.95405,0 c -1.09291,1.63935 -2.33291,3.41402 -3.69897,5.32651 -1.36612,1.82147 -2.79667,3.67295 -4.25381,5.58544 -0.7286,1.00182 -1.47373,1.9944 -2.29335,2.99616 -0.81968,1.00182 -1.65869,2.03136 -2.47831,3.03315 -1.54826,1.91256 -3.13239,3.76401 -4.77166,5.58544 -1.54826,1.73039 -2.99872,3.29461 -4.36478,4.66069 -1.45717,1.27505 -2.75404,2.15382 -3.84692,2.70024 -1.09287,0.54645 -2.00868,0.85077 -2.73724,0.85077 l -0.51785,0 c -0.0911,0 -0.22486,-0.0568 -0.40689,-0.14796 -0.45539,-0.18213 -0.83646,-0.44948 -1.10969,-0.81377 -0.18207,-0.36427 -0.25892,-0.80227 -0.25892,-1.25765 l 0,-0.25893 0,-0.25893 0,-0.14796 c 0.0913,-0.0911 0.11102,-0.16778 0.11102,-0.25892 l 7.95278,-27.59428 -6.17727,0 -7.91579,27.59428 c -0.0911,0.27321 -0.16778,0.54054 -0.25892,0.81377 l 0,0.55484 c -0.0911,0.18217 -0.14796,0.3926 -0.14796,0.66582 l 0,0.66581 c 0,0.1509 0.0292,0.29689 0.0369,0.44388 l -33.10573,0 c -1.73038,0 -3.16098,-0.57167 -4.25381,-1.66454 -1.00182,-1.09287 -1.47959,-2.40963 -1.47959,-3.95789 l 0,-1.0727 c 0.0912,-0.36426 0.16779,-0.74539 0.25893,-1.10969 l 4.77166,-16.64534 11.35582,0 1.77551,-6.28824 -11.35582,0 5.62242,-19.56752 -6.28824,0 -5.62242,19.56752 -9.72828,0 -51.63754,0 7.95283,-27.594267 -6.28824,0 -7.95277,27.594267 -7.76782,0 -1.77551,6.28824 7.76783,0 -9.54333,33.73456 c -0.18202,0.63751 -0.31574,1.24894 -0.40688,1.88647 -0.0911,0.54643 -0.14796,1.13799 -0.14796,1.7755 0,2.6411 0.85888,4.87366 2.58927,6.69513 1.82144,1.82144 4.24458,2.73723 7.24997,2.73723 l 0.25893,0 0.29592,0 c 3.64288,-0.18217 7.11544,-1.57572 10.39409,-4.21682 3.27858,-2.55005 5.47414,-5.77515 6.65813,-9.69129 0.63749,-2.18575 1.15223,-4.39841 1.51658,-6.58415 0.3644,-2.27679 0.55481,-4.52927 0.55484,-6.8061 -3e-5,-3.46075 -0.51482,-6.87642 -1.51657,-10.24613 -0.91078,-3.36965 -2.55178,-6.46111 -4.91963,-9.2844 l 44.94242,0 9.72827,0 c -0.27321,0.91077 -0.61735,1.98013 -1.0727,3.25509 -0.36429,1.27504 -0.8023,2.59185 -1.25764,3.95789 -0.36431,1.09291 -0.70844,2.25611 -1.0727,3.44004 -0.27323,1.09291 -0.54056,2.21913 -0.81377,3.40305 -0.18217,1.0929 -0.37281,2.19923 -0.55485,3.29208 -0.18207,1.09286 -0.25893,2.10534 -0.25893,3.10713 0,2.82326 0.72522,5.24639 2.18239,7.24997 1.45715,1.91252 4.14761,2.88519 8.06374,2.88519 l 40.31871,0 c 0.45536,0.0911 0.91323,0.11091 1.36862,0.11091 1.275,0 2.5918,-0.21047 3.95789,-0.66582 1.36609,-0.45535 2.75965,-1.12369 4.21682,-2.03443 0.63749,-0.45535 1.34283,-0.97013 2.07142,-1.51657 0.72857,-0.63749 1.39692,-1.28594 2.03443,-1.92346 2.2768,-2.18574 4.43259,-4.43819 6.4362,-6.8061 2.09462,-2.45893 4.13664,-4.93893 6.14028,-7.39793 0.36427,-0.54639 0.70835,-1.0242 1.0727,-1.47958 0.45531,-0.54641 0.89331,-1.06118 1.25765,-1.51658 -0.18217,0.63753 -0.44951,1.43953 -0.81377,2.44132 -0.27325,0.91074 -0.59747,1.9602 -0.96174,3.14412 -0.27325,0.72861 -0.57754,1.5676 -0.85076,2.4783 -0.27325,0.81968 -0.48377,1.6217 -0.66581,2.44132 -0.18217,1.00182 -0.37282,1.97449 -0.55485,2.88519 -0.0911,0.91074 -0.11102,1.76962 -0.11091,2.58928 -3e-5,2.00361 0.47777,3.72142 1.47959,5.17855 1.00175,1.36609 2.89021,2.07142 5.62243,2.07142 l 43.46283,0 32.107,0 0.0369,-0.14796 c 0.0265,0.007 0.047,-0.007 0.074,0 0.45539,0.0911 1.02706,0.14796 1.66454,0.14796 1.27501,0 2.80226,-0.32421 4.6237,-0.96173 1.91253,-0.72856 4.01141,-2.23591 6.28824,-4.51274 l 3.40305,-3.40305 c 2.36788,-2.36788 4.10537,-6.13478 7.65686,-7.65685 l 1.7755,-1.7755 1.66453,-1.62755 -0.7028,2.03443 c -0.18217,0.7286 -0.39259,1.53062 -0.66581,2.44132 -0.27325,0.63752 -0.52078,1.34286 -0.70281,2.07142 -0.18216,0.63752 -0.37281,1.28598 -0.55484,1.92346 -0.18204,0.81965 -0.31575,1.56479 -0.40689,2.29336 -0.0911,0.7286 -0.11091,1.45381 -0.11091,2.18239 0,2.0036 0.47777,3.70149 1.47959,5.06758 1.00178,1.27501 2.91013,1.92346 5.73339,1.92346 l 50.15796,0 51.0457,0 48.67837,0 0.70281,0 0,-0.0369 c 1.82118,-0.14619 3.53296,-0.85306 5.06758,-2.1454 1.82144,-1.45713 3.02445,-3.21193 3.66197,-5.21554 l 6.69513,-23.19251 16.27544,0 c -0.27325,0.81968 -0.65435,1.83216 -1.10969,3.10713 -0.36431,1.18399 -0.7653,2.53774 -1.22066,3.99488 -0.3643,1.00183 -0.74541,2.07118 -1.10969,3.25509 -0.27321,1.18397 -0.54054,2.36709 -0.81377,3.55101 -0.27321,1.0929 -0.48379,2.19924 -0.66581,3.29208 -0.0911,1.09288 -0.14796,2.14233 -0.14796,3.14412 0,2.82326 0.72521,5.24639 2.18239,7.24997 1.45713,2.0036 4.14761,2.99616 8.06374,2.99616 l 38.80213,0 1.77551,-6.14028 -38.80214,0 c -1.73039,0 -3.12398,-0.57167 -4.21682,-1.66454 -1.0929,-1.18391 -1.66457,-2.55759 -1.66453,-4.10585 -4e-5,-0.36426 -4e-5,-0.65152 0,-0.92474 0.0911,-0.36426 0.20477,-0.74539 0.29592,-1.10969 l 4.77166,-16.64534 7.65686,0 1.7755,-6.28824 -30.07258,0 1.92346,-6.99104 -6.14028,0 -10.54205,36.47179 c -0.0911,0.27321 -0.22485,0.54054 -0.40688,0.81377 -0.18214,0.18203 -0.39259,0.35273 -0.66582,0.44388 l -0.29592,0 -42.61206,0 c 3.1875,-2.73218 5.47696,-5.67007 6.84308,-8.76655 1.45714,-3.09644 2.71703,-6.45525 3.80993,-10.09817 l -6.28823,0 c -0.18217,0.63756 -0.39259,1.30586 -0.66582,2.03443 -0.18217,0.63751 -0.37282,1.34285 -0.55484,2.07142 -1.36613,3.64291 -3.33136,7.00173 -5.88136,10.09817 -2.459,3.09648 -5.87467,4.6607 -10.24613,4.6607 -3.09647,0 -5.21528,-0.97267 -6.39921,-2.8852 -1.18395,-2.00357 -1.7755,-4.23612 -1.7755,-6.69512 l 0,-0.66581 0,-0.70281 c 0.0911,-1.00178 0.22485,-1.93746 0.40689,-2.8482 0.18213,-0.9107 0.33583,-1.7497 0.51785,-2.47831 0.45536,-1.54819 0.97014,-2.92186 1.51658,-4.10585 0.54644,-1.27497 1.19485,-2.21065 1.92346,-2.8482 0.45536,-0.3644 0.91324,-0.61166 1.36862,-0.7028 0.54644,-0.18203 1.08111,-0.31575 1.62754,-0.40689 0.18213,-0.0911 0.42959,-0.11091 0.7028,-0.11091 0.27318,4e-5 0.54055,4e-5 0.81378,0 l 36.73071,0 1.7755,-6.28824 -36.73071,0 c -2.00362,4e-5 -3.83516,0.26737 -5.47447,0.81378 -1.54826,0.45541 -2.97879,1.18063 -4.25381,2.18238 -1.91252,1.45722 -3.2492,3.23188 -4.06886,5.32651 -0.81965,2.00365 -1.54486,4.10254 -2.18239,6.28824 -0.36429,1.27505 -0.66872,2.53493 -0.85076,3.80994 -0.18207,1.27503 -0.25893,2.57192 -0.25893,3.84692 -0.0734,3.15728 0.59094,5.96453 1.99744,8.47063 l -31.51517,0 -3.95789,0 c -1.73039,0 -3.12395,-0.57167 -4.21682,-1.66454 -1.00179,-1.09287 -1.51658,-2.40963 -1.51658,-3.95789 l 0,-1.0727 c 0.0911,-0.36426 0.16779,-0.74539 0.25893,-1.10969 l 4.80865,-16.64534 11.31884,0 1.7755,-6.28824 -11.31883,0 5.58543,-19.56752 -6.28824,0 -5.58543,19.56752 -11.20786,0 -1.77551,6.28824 11.20787,0 c -0.27322,0.91076 -0.65434,1.98013 -1.10969,3.25509 -0.3643,1.27504 -0.7653,2.59184 -1.22066,3.95789 -0.3643,1.09291 -0.74539,2.25611 -1.10969,3.44004 -0.27322,1.0929 -0.54056,2.21913 -0.81377,3.40305 -0.18213,1.0929 -0.37282,2.19923 -0.55485,3.29207 -0.18208,1.09287 -0.25893,2.10535 -0.25893,3.10713 0,1.42487 0.1837,2.7788 0.55485,3.99489 l -34.73327,0 c -0.8197,0 -1.48804,-0.30433 -2.03444,-0.85077 -0.45525,-0.54642 -0.66584,-1.13797 -0.66581,-1.7755 -3e-5,-0.0911 -3e-5,-0.16778 0,-0.25893 -3e-5,-0.0911 -3e-5,-0.16778 0,-0.25892 -3e-5,-0.0911 -3e-5,-0.20478 0,-0.29592 0.0911,-0.0911 0.11091,-0.16779 0.11091,-0.25893 l 7.80482,-27.03943 -26.37362,0 c -4.28041,0 -7.48566,1.64105 -9.58032,4.91963 -2.09465,3.27865 -3.67879,6.84789 -4.77166,10.76398 -0.45535,1.54826 -0.85636,3.16939 -1.22066,4.80866 -0.27322,1.54826 -0.59743,2.9418 -0.96173,4.21681 -0.0911,0.45539 -0.16778,0.8564 -0.25893,1.22066 -0.0911,0.27322 -0.20477,0.59747 -0.29591,0.96173 -0.0912,0.18217 -0.16779,0.42958 -0.25893,0.70281 l 0,0.51785 c -0.0911,0.27323 -0.14796,0.57755 -0.14796,0.85076 l 0,0.51786 c 0,0.42663 0.0488,0.84485 0.11091,1.25765 l -24.82005,0 -3.588,0 c -0.7286,0 -1.32015,-0.24741 -1.7755,-0.70281 -0.45525,-0.45534 -0.7028,-0.99003 -0.7028,-1.62754 l 0,-0.29592 0,-0.25893 0,-0.14795 c 0.0911,-0.0911 0.14796,-0.16779 0.14796,-0.25893 l 15.83156,-55.188547 z m -231.6714,4.993597 c -1.7304,6e-5 -3.21782,0.59163 -4.40177,1.77551 -1.18392,1.18399 -1.7755,2.63445 -1.7755,4.36477 0,1.63937 0.59158,3.06993 1.7755,4.25381 1.18395,1.18399 2.67137,1.77554 4.40177,1.77551 1.73038,3e-5 3.18082,-0.59152 4.36477,-1.77551 1.18396,-1.18388 1.77551,-2.61444 1.77551,-4.25381 0,-1.73032 -0.59155,-3.18078 -1.77551,-4.36477 -1.18395,-1.18388 -2.63439,-1.77545 -4.36477,-1.77551 z m -7.13373,20.82517 -8.32266,29.36978 c 0,0.0911 -0.0568,0.22485 -0.14796,0.40688 0,0.18204 -0.0199,0.31575 -0.11091,0.40689 0,0.27323 -0.0568,0.54056 -0.14796,0.81377 l 0,0.81377 c 0,2.00361 0.64846,3.7015 1.92346,5.06759 1.27505,1.27501 2.9928,1.92346 5.17855,1.92346 l 37.43352,0 1.7755,-6.14028 -37.43352,0 c -0.72857,0 -1.32012,-0.24741 -1.7755,-0.70281 -0.45525,-0.45534 -0.66581,-0.99003 -0.66581,-1.62754 l 0,-0.29592 0,-0.25893 0,-0.14795 c 0.0911,-0.0912 0.11091,-0.16779 0.11091,-0.25893 l 8.47062,-29.36978 z m 295.80617,8.06374 -21.74991,21.56497 -0.25892,0.29591 c -0.0912,0.0911 -0.22487,0.16779 -0.40689,0.25893 -0.36431,0.36431 -0.76531,0.74542 -1.22066,1.10969 -0.45536,0.3643 -0.91326,0.65151 -1.36862,0.92474 -0.27321,0.0911 -0.54054,0.20478 -0.81377,0.29592 -0.27321,0.0911 -0.57753,0.14796 -0.85076,0.14796 l -0.51785,0 c -0.0911,0 -0.22485,-0.0568 -0.40689,-0.14796 -0.54643,-0.18213 -1.00432,-0.56326 -1.36862,-1.10969 -0.3644,-0.54644 -0.55484,-1.13799 -0.55484,-1.7755 l 0,-0.40689 c 0,-0.18202 0.0568,-0.31574 0.14796,-0.40689 l 5.17855,-18.01395 c 0.27321,-1.00175 0.75102,-1.70709 1.47958,-2.07142 0.72857,-0.36441 1.56757,-0.51782 2.47831,-0.51786 z m -245.16735,2.58928 c 2.73215,2.459 4.64049,5.2831 5.7334,8.47063 1.18392,3.18756 1.77547,6.52646 1.7755,9.9872 0,0.63752 -0.0568,1.30587 -0.14796,2.03443 0,0.63753 -0.0199,1.28599 -0.11091,1.92346 -0.0911,1.3661 -0.28163,2.70277 -0.55484,4.06886 -0.27325,1.275 -0.65434,2.57191 -1.10969,3.84693 -0.63752,2.0036 -1.82065,3.83517 -3.55101,5.47446 -1.73039,1.63931 -3.77241,2.44132 -6.14028,2.44132 -1.63931,0 -2.89923,-0.45788 -3.80993,-1.36862 -0.91074,-1.00178 -1.36862,-2.18492 -1.36862,-3.551 l 0,-0.96173 c 0.0911,-0.36431 0.16779,-0.70841 0.25893,-1.0727 z"
       id="path2990"
       inkscape:connector-curvature="0"
       sodipodi:nodetypes="ccccccccscccccccccccccsccssccccccccccccccccccccccccccccccccccccccccscsccccccccccsccccssccscccccccccsscscscccccccccccccccccccscscccccccccccscccscscssccccccccccccccsccccscssscccccccscsccccccccccccccscsccscccccccccccccccccccccscscccccccccccccccccccccscscccccccccccccscccscscccccccsscccccccssccscsccccccccscccscccccccscsccscscccccccccccccssccssccccccccccccsscscccc" />
  </g>
</svg>
