# Blender v2.63 (sub 0) OBJ File: 'models.blend'
# www.blender.org
v -1.977992 0.767388 0.847395
v -1.977992 -0.772190 0.847395
v -1.971128 0.819512 0.847395
v -1.951017 0.868075 0.847395
v -1.919005 0.909784 0.847395
v -1.877297 0.941787 0.847395
v -1.828742 0.961907 0.847395
v -1.776619 0.968770 0.847395
v 1.776955 0.968770 0.847395
v 1.829061 0.961907 0.847395
v 1.877633 0.941787 0.847395
v 1.919342 0.909784 0.847395
v 1.951354 0.868075 0.847395
v 1.971465 0.819512 0.847395
v 1.978329 0.767388 0.847395
v 1.978329 -0.772190 0.847395
v 1.971465 -0.824313 0.847395
v 1.951354 -0.872885 0.847395
v 1.919342 -0.914585 0.847395
v 1.877633 -0.946588 0.847395
v 1.829061 -0.966708 0.847395
v 1.776955 -0.973571 0.847395
v -1.776619 -0.973571 0.847395
v -1.828742 -0.966708 0.847395
v -1.877297 -0.946588 0.847395
v -1.919005 -0.914585 0.847395
v -1.951017 -0.872885 0.847395
v -1.971128 -0.824313 0.847395
v -1.970360 -0.884050 0.847395
v -1.934815 -0.930386 0.847395
v -1.992708 -0.830092 0.847395
v 1.970697 -0.884050 0.847395
v 1.935134 -0.930386 0.847395
v 1.888799 -0.965940 0.847395
v -2.000340 -0.772190 0.847395
v 1.993045 -0.830092 0.847395
v 1.834849 -0.988288 0.847395
v -2.000340 0.767388 0.847395
v -1.776619 0.991101 0.847395
v 1.776955 0.991101 0.847395
v 1.776955 -0.995911 0.847395
v -1.834512 0.983478 0.847395
v 2.000660 -0.772190 0.847395
v -1.992708 0.825291 0.847395
v 2.000660 0.767388 0.847395
v 1.993045 0.825291 0.847395
v 1.970697 0.879249 0.847395
v -1.888479 0.961130 0.847395
v -1.970360 0.879249 0.847395
v -1.934815 0.925576 0.847395
v 1.935134 0.925576 0.847395
v 1.888799 0.961130 0.847395
v 1.834849 0.983478 0.847395
v -1.776619 -0.995911 0.847395
v -1.834512 -0.988288 0.847395
v -1.888479 -0.965940 0.847395
v -1.999691 0.767388 0.874035
v -1.999469 -0.771899 0.875096
v -1.833829 0.982881 0.874681
v -1.776328 0.990248 0.875096
v -1.934132 0.925175 0.874742
v -1.970206 0.879155 0.867852
v 1.776955 0.990461 0.874035
v 1.999874 0.767773 0.874742
v 1.992226 0.824924 0.875096
v 1.970543 0.879155 0.867852
v 1.934537 0.924978 0.874796
v 1.888714 0.960294 0.874919
v 2.000028 -0.772190 0.874035
v 1.834337 -0.987622 0.874919
v 1.776648 -0.995049 0.875096
v 1.934827 -0.929600 0.874919
v 1.970014 -0.883487 0.875096
v -1.992042 -0.829571 0.874919
v -1.934405 -0.929711 0.874742
v -1.888257 -0.965180 0.874742
v -1.954619 -0.874968 0.898598
v -1.966860 -0.823169 0.902128
v -1.975158 -0.825388 0.898598
v -1.961021 -0.878664 0.892961
v -1.927183 -0.922763 0.892961
v -1.965955 -0.881515 0.885624
v -1.931212 -0.926792 0.885624
v -1.885935 -0.961535 0.885624
v -1.947175 -0.870665 0.902128
v -1.939202 -0.866056 0.903343
v -1.834512 -0.987503 0.874742
v -1.776619 -0.995271 0.874035
v -1.776619 -0.990832 0.885624
v -1.921959 -0.917539 0.898598
v -1.883084 -0.956601 0.892961
v -1.833198 -0.983380 0.885624
v -1.776619 -0.985138 0.892961
v -1.915881 -0.911461 0.902128
v -1.891433 -0.921832 0.903343
v -1.879396 -0.950199 0.898598
v -1.831729 -0.977882 0.892961
v -1.776619 -0.977737 0.898598
v -1.875094 -0.942755 0.902128
v -1.812420 -0.957540 0.903343
v -1.829817 -0.970737 0.898598
v -1.776619 -0.969141 0.902128
v -1.827598 -0.962431 0.902128
v -1.995252 -0.772190 0.885624
v -1.987808 -0.828777 0.885624
v -1.989550 -0.772190 0.892961
v -1.969797 -0.883504 0.874742
v -1.982294 -0.827309 0.892961
v -1.982157 -0.772190 0.898598
v -1.973570 -0.772190 0.902128
v -1.960868 -0.811474 0.903343
v -1.815903 0.951646 0.903343
v -1.939202 0.861255 0.903343
v -1.895257 0.914667 0.903343
v -1.962165 0.800143 0.903343
v -1.927183 0.917962 0.892961
v 1.967197 0.818359 0.902128
v 1.982494 0.767388 0.898598
v 1.776955 -0.990832 0.885617
v 1.961205 0.806664 0.903343
v -1.831729 0.973072 0.892961
v 1.982494 -0.772190 0.898598
v -1.829817 0.965928 0.898598
v -1.776619 0.964340 0.902128
v -1.885935 0.956734 0.885617
v 1.947512 0.865864 0.902128
v -1.776619 0.972936 0.898598
v 1.989887 -0.772190 0.892961
v -1.915881 0.906651 0.902128
v 1.975495 -0.825388 0.898598
v -1.982294 0.822499 0.892961
v -1.879396 0.945397 0.898598
v 1.966292 0.876705 0.885617
v 1.982631 -0.827309 0.892961
v 1.954956 0.870158 0.898598
v -1.995252 0.767388 0.885617
v 1.832066 -0.977882 0.892961
v 1.961358 -0.878664 0.892961
v 1.776955 -0.969141 0.902128
v 1.969417 0.878515 0.877049
v 1.916218 -0.911461 0.902128
v -1.954619 0.870158 0.898598
v 1.966292 -0.881515 0.885617
v -1.827598 0.957630 0.902128
v -1.947175 0.865864 0.902128
v 1.834832 0.982701 0.874742
v 1.879716 0.945397 0.898598
v 1.776955 0.980328 0.892961
v -1.887796 0.960626 0.874919
v 1.922296 0.912729 0.898598
v 1.776955 0.972936 0.898598
v 1.992260 -0.830083 0.874742
v 1.954956 -0.874968 0.898598
v 1.982631 0.822499 0.892961
v 1.967197 -0.823169 0.902128
v -1.965955 0.876705 0.885617
v -1.982157 0.767388 0.898598
v 1.931549 0.921991 0.885617
v 1.988128 -0.828777 0.885617
v 1.832066 0.973072 0.892961
v 1.888509 0.920104 0.903343
v 1.833534 0.978578 0.885617
v 1.927520 -0.922763 0.892961
v 1.947512 -0.870665 0.902128
v -1.931212 0.921991 0.885617
v 1.883421 0.951800 0.892961
v -1.991906 0.824924 0.875088
v -1.975158 0.820587 0.898598
v 1.939539 0.861255 0.903335
v -1.776619 0.980328 0.892961
v -1.833198 0.978578 0.885617
v 1.961358 0.873863 0.892961
v -1.961021 0.873863 0.892961
v 1.973907 -0.772190 0.902128
v 1.830154 -0.970737 0.898598
v -1.966860 0.818359 0.902128
v 1.875431 0.937954 0.902128
v 1.975495 0.820587 0.898598
v 1.776955 0.986022 0.885617
v 1.973907 0.767388 0.902128
v 1.886272 0.956734 0.885617
v 1.888492 -0.965385 0.874050
v -1.989550 0.767388 0.892961
v -1.875094 0.937954 0.902128
v 1.827918 0.957630 0.902128
v 1.927520 0.917962 0.892961
v 1.989887 0.767388 0.892961
v 1.827918 -0.962431 0.902128
v 1.922296 -0.917539 0.898598
v -1.973570 0.767388 0.902128
v 1.883421 -0.956601 0.892961
v 1.809701 0.952935 0.903343
v -1.776619 0.986022 0.885617
v 1.833534 -0.983380 0.885617
v -1.883084 0.951800 0.892961
v 1.931549 -0.926792 0.885617
v 1.879716 -0.950199 0.898598
v 1.995589 0.767388 0.885617
v 1.875431 -0.942755 0.902128
v 1.988128 0.823976 0.885617
v -1.987808 0.823976 0.885617
v 1.962502 -0.804952 0.903343
v 1.816223 -0.956456 0.903343
v 1.929671 -0.883751 0.903343
v 1.870821 -0.934774 0.903343
v 1.830154 0.965928 0.898598
v -1.969097 0.878515 0.877049
v 1.916218 0.906651 0.902128
v -1.921959 0.912729 0.898598
v 1.995589 -0.772190 0.885617
v 1.886272 -0.961535 0.885617
v 1.776955 -0.985138 0.892961
v 1.776955 0.964340 0.902128
v 1.776955 -0.977737 0.898598
v -1.934815 -0.930386 0.847395
v -1.888479 -0.965940 0.847395
v 1.993045 -0.830092 0.847395
v 2.000660 -0.772190 0.847395
v -2.000340 0.767388 0.847395
v -1.992708 0.825291 0.847395
v 1.970697 0.879249 0.847395
v 1.935134 0.925576 0.847395
v -1.888479 0.961130 0.847395
v -1.934815 0.925576 0.847395
v 1.993045 0.825291 0.847395
v 2.000660 0.767388 0.847395
v 1.776955 0.991101 0.847395
v 1.834849 0.983478 0.847395
v 1.776955 -0.995911 0.847395
v -1.776619 -0.995911 0.847395
v -1.834512 0.983478 0.847395
v -1.970360 0.879249 0.847395
v -1.776619 0.991101 0.847395
v -2.000340 -0.772190 0.847395
v 1.834849 -0.988288 0.847395
v -1.992708 -0.830092 0.847395
v 1.935134 -0.930386 0.847395
v 1.888799 -0.965940 0.847395
v 1.970697 -0.884050 0.847395
v -1.970360 -0.884050 0.847395
v -1.834512 -0.988288 0.847395
v 1.888799 0.961130 0.847395
vn 0.000000 0.000000 -1.000000
vn 0.000000 0.000000 -0.999969
vn -0.979400 0.063295 0.191687
vn -0.997406 -0.064791 0.031129
vn -0.977264 -0.061892 0.202734
vn -0.997559 0.065371 0.024293
vn -0.250069 0.947844 0.197607
vn -0.061953 0.977172 0.203101
vn -0.064577 0.997436 0.030396
vn -0.259590 0.965331 0.027131
vn -0.487869 0.849391 0.201178
vn -0.500229 0.865413 0.027833
vn -0.690939 0.694693 0.199805
vn -0.705344 0.708365 0.025819
vn -0.863979 0.498428 0.071352
vn -0.865993 0.499954 0.008789
vn -0.965941 0.257118 0.028016
vn -0.946562 0.250893 0.202582
vn 0.063417 0.979369 0.191717
vn 0.065310 0.997559 0.023957
vn 0.966063 0.256600 0.028779
vn 0.977783 0.064638 0.199377
vn 0.997497 0.064669 0.027680
vn 0.946562 0.250740 0.202795
vn 0.863796 0.498611 0.072207
vn 0.865932 0.500046 0.008789
vn 0.705191 0.708457 0.027802
vn 0.692038 0.694174 0.197943
vn 0.491684 0.847224 0.201086
vn 0.499313 0.865963 0.027467
vn 0.255043 0.946226 0.198950
vn 0.258889 0.965514 0.026978
vn 0.979400 -0.063417 0.191595
vn 0.997559 -0.065218 0.023652
vn 0.251228 -0.946715 0.201483
vn 0.061800 -0.977264 0.202673
vn 0.064760 -0.997406 0.030885
vn 0.258736 -0.965545 0.027345
vn 0.490829 -0.850124 0.190619
vn 0.499832 -0.865780 0.023774
vn 0.706778 -0.706900 0.027223
vn 0.694296 -0.690909 0.201392
vn 0.865535 -0.499893 0.030122
vn 0.848750 -0.488510 0.202246
vn 0.946135 -0.255013 0.199347
vn 0.965514 -0.258858 0.027100
vn -0.063448 -0.979400 0.191656
vn -0.065310 -0.997559 0.023957
vn -0.946776 -0.251442 0.200873
vn -0.965392 -0.259255 0.027833
vn -0.849391 -0.488815 0.198889
vn -0.865566 -0.499985 0.027589
vn -0.693930 -0.691946 0.199072
vn -0.706656 -0.706961 0.027772
vn -0.491195 -0.847987 0.198981
vn -0.499588 -0.865780 0.027772
vn -0.255287 -0.946104 0.199194
vn -0.258827 -0.965514 0.027070
vn -0.437696 -0.252693 0.862850
vn -0.256264 -0.072481 0.963866
vn -0.488418 -0.130802 0.862728
vn -0.614246 -0.354625 0.704886
vn -0.501602 -0.501602 0.704794
vn -0.754021 -0.436110 0.491134
vn -0.615589 -0.616321 0.491073
vn -0.435133 -0.754692 0.490951
vn -0.231483 -0.133213 0.963652
vn -0.061892 -0.035279 0.997436
vn -0.079897 -0.014191 0.996673
vn -0.056490 -0.871181 0.487625
vn -0.357494 -0.357494 0.862758
vn -0.354686 -0.614338 0.704794
vn -0.225013 -0.841670 0.490829
vn -0.046358 -0.705802 0.706870
vn -0.184606 -0.180853 0.966002
vn -0.054781 -0.071688 0.995911
vn -0.252815 -0.437788 0.862789
vn -0.183660 -0.685263 0.704703
vn -0.033082 -0.500870 0.864864
vn -0.125278 -0.223548 0.966582
vn -0.014283 -0.086978 0.996094
vn -0.130772 -0.488083 0.862911
vn -0.014252 -0.251991 0.967620
vn -0.072726 -0.254616 0.964293
vn -0.867672 -0.056856 0.493851
vn -0.840022 -0.226325 0.493027
vn -0.705710 -0.046327 0.706961
vn -0.684896 -0.183569 0.705100
vn -0.501267 -0.033113 0.864650
vn -0.247932 -0.014252 0.968657
vn -0.084628 0.012879 0.996307
vn -0.252998 0.014344 0.967345
vn -0.501267 0.033113 0.864650
vn -0.705893 0.046327 0.706778
vn -0.871029 0.056215 0.487960
vn -0.252785 0.437788 0.862789
vn -0.130833 0.488205 0.862850
vn -0.354747 0.614490 0.704642
vn -0.501663 0.501633 0.704733
vn -0.616504 0.615558 0.490860
vn -0.749290 0.434004 0.500168
vn -0.834437 0.482772 0.265725
vn -0.125095 0.222694 0.966796
vn -0.059542 0.076144 0.995300
vn -0.014374 0.079928 0.996673
vn -0.072512 0.256294 0.963866
vn -0.357402 0.357311 0.862850
vn -0.614399 0.354778 0.704672
vn -0.840663 0.224921 0.492599
vn -0.186773 0.180242 0.965697
vn -0.437666 0.252632 0.862880
vn -0.685049 0.183538 0.704947
vn -0.230628 0.134159 0.963713
vn -0.061434 0.036866 0.997406
vn -0.488418 0.130894 0.862697
vn -0.253059 0.071078 0.964812
vn -0.057100 0.867794 0.493606
vn -0.226539 0.841456 0.490493
vn -0.046358 0.706168 0.706504
vn -0.183630 0.685202 0.704794
vn -0.033113 0.501114 0.864711
vn -0.436110 0.752892 0.492874
vn -0.014252 0.247719 0.968719
vn 0.013276 0.084567 0.996307
vn 0.014344 0.252846 0.967376
vn 0.033113 0.501114 0.864711
vn 0.046358 0.706168 0.706504
vn 0.056459 0.871273 0.487503
vn 0.616382 0.616901 0.489334
vn 0.437666 0.252632 0.862880
vn 0.256203 0.072481 0.963866
vn 0.488418 0.130894 0.862697
vn 0.685568 0.183660 0.704428
vn 0.614460 0.354747 0.704672
vn 0.501633 0.501663 0.704733
vn 0.433943 0.754082 0.492965
vn 0.231269 0.133122 0.963713
vn 0.061495 0.035127 0.997467
vn 0.079897 0.014191 0.996673
vn 0.357372 0.357372 0.862850
vn 0.354686 0.614307 0.704825
vn 0.224830 0.841670 0.490921
vn 0.183660 0.180059 0.966338
vn 0.057985 0.077334 0.995300
vn 0.252663 0.437727 0.862850
vn 0.183630 0.685202 0.704794
vn 0.125889 0.227119 0.965667
vn 0.130833 0.488144 0.862880
vn 0.071383 0.250069 0.965575
vn 0.868404 0.056063 0.492599
vn 0.840877 0.225074 0.492172
vn 0.705924 0.046388 0.706748
vn 0.835047 0.482131 0.264992
vn 0.501267 0.033113 0.864650
vn 0.749962 0.432844 0.500168
vn 0.247932 0.014252 0.968657
vn 0.084567 -0.013276 0.996307
vn 0.252998 -0.014344 0.967345
vn 0.501267 -0.033113 0.864650
vn 0.705924 -0.046388 0.706748
vn 0.871090 -0.056520 0.487838
vn 0.252663 -0.437696 0.862850
vn 0.072451 -0.256111 0.963897
vn 0.130802 -0.488021 0.862941
vn 0.354717 -0.614307 0.704794
vn 0.501724 -0.501755 0.704611
vn 0.436811 -0.756523 0.486618
vn 0.614338 -0.616077 0.492935
vn 0.753685 -0.435377 0.492294
vn 0.133305 -0.231635 0.963591
vn 0.035279 -0.061830 0.997436
vn 0.014222 -0.080081 0.996673
vn 0.357463 -0.357524 0.862758
vn 0.614429 -0.354717 0.704703
vn 0.841578 -0.224677 0.491104
vn 0.180151 -0.183721 0.966308
vn 0.077425 -0.058046 0.995300
vn 0.437696 -0.252693 0.862850
vn 0.685568 -0.183691 0.704428
vn 0.227027 -0.125797 0.965697
vn 0.488418 -0.130802 0.862728
vn 0.250160 -0.071444 0.965545
vn 0.056948 -0.867916 0.493423
vn 0.226356 -0.840175 0.492782
vn 0.046358 -0.705985 0.706687
vn 0.183721 -0.685446 0.704520
vn 0.033082 -0.500870 0.864864
vn 0.014222 -0.247749 0.968688
s 1
f 29//1 27//2 30//1
f 31//1 28//1 27//2
f 31//1 27//2 29//1
f 18//2 32//1 33//1
f 18//2 33//1 19//1
f 2//1 28//1 31//1
f 20//2 33//1 34//1
f 20//2 19//1 33//1
f 234//2 2//1 31//1
f 36//2 32//1 18//2
f 37//2 20//2 34//1
f 1//1 2//1 234//2
f 17//1 36//2 18//2
f 38//1 1//1 234//2
f 21//1 20//2 37//2
f 233//1 227//1 9//2
f 233//1 9//2 8//1
f 22//1 37//2 229//2
f 231//1 8//1 7//1
f 231//1 233//1 8//1
f 22//1 21//1 37//2
f 16//2 218//1 36//2
f 220//1 1//1 38//1
f 3//1 1//1 220//1
f 16//2 36//2 17//1
f 226//1 218//1 16//2
f 4//1 3//1 220//1
f 6//1 231//1 7//1
f 15//1 226//1 16//2
f 225//1 226//1 15//1
f 14//1 225//1 15//1
f 13//1 221//1 225//1
f 223//1 231//1 6//1
f 49//1 4//1 220//1
f 13//1 225//1 14//1
f 50//2 6//1 5//1
f 50//2 5//1 4//1
f 50//2 223//1 6//1
f 50//2 4//1 49//1
f 51//1 13//1 12//1
f 51//1 221//1 13//1
f 11//1 51//1 12//1
f 52//1 51//1 11//1
f 53//1 52//1 11//1
f 53//1 11//1 10//2
f 9//2 53//1 10//2
f 227//1 53//1 9//2
f 23//1 229//2 54//1
f 23//1 22//1 229//2
f 55//1 23//1 54//1
f 24//1 23//1 55//1
f 25//1 24//1 55//1
f 25//1 55//1 56//2
f 30//1 25//1 56//2
f 26//1 25//1 30//1
f 27//2 26//1 30//1
f 57//3 35//4 58//5
f 219//6 35//4 57//3
f 59//7 60//8 39//9
f 59//7 39//9 42//10
f 149//11 42//10 48//12
f 149//11 59//7 42//10
f 61//13 48//12 224//14
f 61//13 149//11 48//12
f 62//15 224//14 232//16
f 62//15 61//13 224//14
f 44//17 62//15 232//16
f 167//18 62//15 44//17
f 57//3 44//17 219//6
f 57//3 167//18 44//17
f 63//19 39//9 60//8
f 40//20 39//9 63//19
f 46//21 64//22 45//23
f 65//24 64//22 46//21
f 66//25 46//21 47//26
f 66//25 65//24 46//21
f 222//27 66//25 47//26
f 67//28 66//25 222//27
f 68//29 222//27 242//30
f 68//29 67//28 222//27
f 146//31 242//30 228//32
f 146//31 68//29 242//30
f 63//19 228//32 40//20
f 63//19 146//31 228//32
f 69//33 45//23 64//22
f 43//34 45//23 69//33
f 70//35 71//36 41//37
f 70//35 41//37 235//38
f 182//39 235//38 238//40
f 182//39 70//35 235//38
f 237//41 182//39 238//40
f 72//42 182//39 237//41
f 239//43 72//42 237//41
f 73//44 72//42 239//43
f 152//45 239//43 217//46
f 152//45 73//44 239//43
f 69//33 217//46 43//34
f 69//33 152//45 217//46
f 88//47 41//37 71//36
f 230//48 41//37 88//47
f 74//49 58//5 35//4
f 74//49 35//4 236//50
f 107//51 236//50 240//52
f 107//51 74//49 236//50
f 75//53 240//52 215//54
f 75//53 107//51 240//52
f 76//55 215//54 216//56
f 76//55 75//53 215//54
f 87//57 216//56 241//58
f 87//57 76//55 216//56
f 88//47 241//58 230//48
f 88//47 87//57 241//58
f 77//59 78//60 79//61
f 77//59 79//61 80//62
f 81//63 80//62 82//64
f 81//63 82//64 83//65
f 84//66 83//65 75//53
f 84//66 75//53 76//55
f 84//66 81//63 83//65
f 85//67 86//68 111//69
f 85//67 111//69 78//60
f 85//67 78//60 77//59
f 87//57 88//47 89//70
f 90//71 77//59 80//62
f 90//71 80//62 81//63
f 91//72 81//63 84//66
f 91//72 90//71 81//63
f 92//73 89//70 93//74
f 92//73 87//57 89//70
f 92//73 84//66 76//55
f 92//73 76//55 87//57
f 92//73 91//72 84//66
f 94//75 95//76 86//68
f 94//75 77//59 90//71
f 94//75 86//68 85//67
f 94//75 85//67 77//59
f 96//77 94//75 90//71
f 96//77 90//71 91//72
f 97//78 96//77 91//72
f 97//78 93//74 98//79
f 97//78 92//73 93//74
f 97//78 91//72 92//73
f 99//80 94//75 96//77
f 99//80 100//81 95//76
f 99//80 95//76 94//75
f 101//82 96//77 97//78
f 101//82 98//79 102//83
f 101//82 99//80 96//77
f 101//82 97//78 98//79
f 103//84 100//81 99//80
f 103//84 102//83 100//81
f 103//84 99//80 101//82
f 103//84 101//82 102//83
f 74//49 104//85 58//5
f 105//86 106//87 104//85
f 105//86 104//85 74//49
f 108//88 109//89 106//87
f 108//88 106//87 105//86
f 82//64 74//49 107//51
f 82//64 108//88 105//86
f 82//64 105//86 74//49
f 79//61 110//90 109//89
f 79//61 109//89 108//88
f 80//62 108//88 82//64
f 80//62 79//61 108//88
f 83//65 107//51 75//53
f 83//65 82//64 107//51
f 78//60 111//69 110//90
f 78//60 110//90 79//61
f 110//90 115//91 190//92
f 110//90 111//69 115//91
f 109//89 190//92 157//93
f 109//89 110//90 190//92
f 106//87 157//93 183//94
f 106//87 109//89 157//93
f 104//85 183//94 136//95
f 104//85 106//87 183//94
f 58//5 136//95 57//3
f 58//5 104//85 136//95
f 132//96 123//97 195//98
f 116//99 195//98 165//100
f 116//99 132//96 195//98
f 156//101 165//100 61//13
f 156//101 61//13 207//102
f 156//101 116//99 165//100
f 184//103 114//104 112//105
f 184//103 144//106 123//97
f 184//103 112//105 144//106
f 184//103 123//97 132//96
f 167//18 57//3 136//95
f 167//18 207//102 62//15
f 209//107 132//96 116//99
f 173//108 116//99 156//101
f 173//108 209//107 116//99
f 201//109 136//95 183//94
f 201//109 167//18 136//95
f 201//109 156//101 207//102
f 201//109 207//102 167//18
f 201//109 173//108 156//101
f 129//110 114//104 184//103
f 129//110 184//103 132//96
f 129//110 132//96 209//107
f 142//111 129//110 209//107
f 142//111 209//107 173//108
f 131//112 142//111 173//108
f 131//112 183//94 157//93
f 131//112 201//109 183//94
f 131//112 173//108 201//109
f 145//113 113//114 114//104
f 145//113 114//104 129//110
f 145//113 129//110 142//111
f 168//115 142//111 131//112
f 168//115 157//93 190//92
f 168//115 145//113 142//111
f 168//115 131//112 157//93
f 176//116 113//114 145//113
f 176//116 190//92 115//91
f 176//116 168//115 190//92
f 176//116 145//113 168//115
f 176//116 115//91 113//114
f 59//7 193//117 60//8
f 171//118 170//119 193//117
f 171//118 193//117 59//7
f 149//11 171//118 59//7
f 121//120 127//121 170//119
f 121//120 170//119 171//118
f 125//122 171//118 149//11
f 125//122 121//120 171//118
f 123//97 124//123 127//121
f 123//97 127//121 121//120
f 195//98 121//120 125//122
f 195//98 123//97 121//120
f 165//100 149//11 61//13
f 165//100 125//122 149//11
f 165//100 195//98 125//122
f 144//106 112//105 124//123
f 144//106 124//123 123//97
f 207//102 61//13 62//15
f 124//123 192//124 213//125
f 124//123 112//105 192//124
f 127//121 213//125 151//126
f 127//121 124//123 213//125
f 170//119 151//126 148//127
f 170//119 127//121 151//126
f 193//117 148//127 179//128
f 193//117 170//119 148//127
f 60//8 179//128 63//19
f 60//8 193//117 179//128
f 68//29 158//129 67//28
f 135//130 117//131 178//132
f 135//130 178//132 154//133
f 135//130 154//133 172//134
f 186//135 172//134 158//129
f 181//136 158//129 68//29
f 181//136 186//135 158//129
f 126//137 169//138 120//139
f 126//137 120//139 117//131
f 126//137 117//131 135//130
f 146//31 63//19 179//128
f 150//140 135//130 172//134
f 150//140 172//134 186//135
f 150//140 126//137 135//130
f 166//141 186//135 181//136
f 162//142 179//128 148//127
f 162//142 146//31 179//128
f 162//142 181//136 68//29
f 162//142 68//29 146//31
f 162//142 166//141 181//136
f 208//143 161//144 169//138
f 208//143 169//138 126//137
f 208//143 126//137 150//140
f 147//145 208//143 150//140
f 147//145 150//140 186//135
f 147//145 186//135 166//141
f 160//146 148//127 151//126
f 160//146 162//142 148//127
f 160//146 166//141 162//142
f 177//147 208//143 147//145
f 177//147 161//144 208//143
f 206//148 147//145 166//141
f 206//148 151//126 213//125
f 206//148 166//141 160//146
f 206//148 177//147 147//145
f 206//148 160//146 151//126
f 185//149 177//147 206//148
f 185//149 161//144 177//147
f 185//149 213//125 192//124
f 185//149 206//148 213//125
f 185//149 192//124 161//144
f 65//24 198//150 64//22
f 200//151 187//152 198//150
f 200//151 198//150 65//24
f 140//153 65//24 66//25
f 140//153 200//151 65//24
f 154//133 118//154 187//152
f 154//133 187//152 200//151
f 133//155 200//151 140//153
f 133//155 154//133 200//151
f 67//28 140//153 66//25
f 178//132 180//156 118//154
f 178//132 118//154 154//133
f 172//134 154//133 133//155
f 158//129 140//153 67//28
f 158//129 133//155 140//153
f 158//129 172//134 133//155
f 117//131 120//139 180//156
f 117//131 180//156 178//132
f 180//156 202//157 174//158
f 180//156 120//139 202//157
f 118//154 174//158 122//159
f 118//154 180//156 174//158
f 187//152 122//159 128//160
f 187//152 118//154 122//159
f 198//150 128//160 210//161
f 198//150 187//152 128//160
f 64//22 210//161 69//33
f 64//22 198//150 210//161
f 197//162 188//163 175//164
f 197//162 175//164 191//165
f 163//166 211//167 196//168
f 163//166 191//165 211//167
f 163//166 197//162 191//165
f 143//169 196//168 72//42
f 143//169 72//42 73//44
f 199//170 205//171 203//172
f 199//170 203//172 188//163
f 199//170 188//163 197//162
f 152//45 69//33 210//161
f 189//173 197//162 163//166
f 138//174 163//166 196//168
f 138//174 189//173 163//166
f 138//174 196//168 143//169
f 159//175 210//161 128//160
f 159//175 152//45 210//161
f 159//175 143//169 73//44
f 159//175 73//44 152//45
f 141//176 204//177 205//171
f 141//176 205//171 199//170
f 141//176 199//170 197//162
f 141//176 197//162 189//173
f 153//178 189//173 138//174
f 134//179 143//169 159//175
f 134//179 153//178 138//174
f 134//179 128//160 122//159
f 134//179 159//175 128//160
f 134//179 138//174 143//169
f 164//180 141//176 189//173
f 164//180 189//173 153//178
f 164//180 204//177 141//176
f 130//181 122//159 174//158
f 130//181 134//179 122//159
f 130//181 153//178 134//179
f 155//182 153//178 130//181
f 155//182 204//177 164//180
f 155//182 174//158 202//157
f 155//182 164//180 153//178
f 155//182 130//181 174//158
f 155//182 202//157 204//177
f 70//35 119//183 71//36
f 194//184 212//185 119//183
f 194//184 119//183 70//35
f 137//186 214//187 212//185
f 137//186 212//185 194//184
f 211//167 70//35 182//39
f 211//167 194//184 70//35
f 72//42 211//167 182//39
f 175//164 139//188 214//187
f 175//164 214//187 137//186
f 191//165 137//186 194//184
f 191//165 194//184 211//167
f 191//165 175//164 137//186
f 196//168 211//167 72//42
f 188//163 203//172 139//188
f 188//163 139//188 175//164
f 139//188 100//81 102//83
f 139//188 203//172 100//81
f 214//187 102//83 98//79
f 214//187 139//188 102//83
f 212//185 98//79 93//74
f 212//185 214//187 98//79
f 119//183 93//74 89//70
f 119//183 212//185 93//74
f 71//36 89//70 88//47
f 71//36 119//183 89//70
f 95//76 100//81 203//172
f 95//76 203//172 205//171
f 95//76 205//171 204//177
f 86//68 95//76 204//177
f 86//68 204//177 202//157
f 111//69 86//68 202//157
f 115//91 111//69 202//157
f 115//91 202//157 120//139
f 113//114 115//91 120//139
f 113//114 120//139 169//138
f 113//114 169//138 161//144
f 114//104 113//114 161//144
f 112//105 114//104 161//144
f 192//124 112//105 161//144
