<?xml version="1.0" encoding="UTF-8" standalone="no"?>
<!-- Created with Inkscape (http://www.inkscape.org/) -->

<svg
   xmlns:dc="http://purl.org/dc/elements/1.1/"
   xmlns:cc="http://creativecommons.org/ns#"
   xmlns:rdf="http://www.w3.org/1999/02/22-rdf-syntax-ns#"
   xmlns:svg="http://www.w3.org/2000/svg"
   xmlns="http://www.w3.org/2000/svg"
   xmlns:xlink="http://www.w3.org/1999/xlink"
   xmlns:sodipodi="http://sodipodi.sourceforge.net/DTD/sodipodi-0.dtd"
   xmlns:inkscape="http://www.inkscape.org/namespaces/inkscape"
   width="256"
   height="256"
   id="svg2"
   version="1.1"
   inkscape:version="0.48.1 r9760"
   sodipodi:docname="scope_bg.svg"
   inkscape:export-filename="/Users/beth/sifteo/thundercracker/emulator/resources/scope_bg_alpha.png"
   inkscape:export-xdpi="90"
   inkscape:export-ydpi="90">
  <defs
     id="defs4">
    <linearGradient
       id="linearGradient3870">
      <stop
         style="stop-color:#ffffff;stop-opacity:1;"
         offset="0"
         id="stop3872" />
      <stop
         id="stop3878"
         offset="0.32828838"
         style="stop-color:#7f7f7f;stop-opacity:1;" />
      <stop
         style="stop-color:#000000;stop-opacity:1;"
         offset="1"
         id="stop3874" />
    </linearGradient>
    <linearGradient
       id="linearGradient3767">
      <stop
         style="stop-color:#303030;stop-opacity:1;"
         offset="0"
         id="stop3769" />
      <stop
         style="stop-color:#a6a6a6;stop-opacity:1;"
         offset="1"
         id="stop3771" />
    </linearGradient>
    <linearGradient
       id="linearGradient3757">
      <stop
         style="stop-color:#dfdfdf;stop-opacity:1;"
         offset="0"
         id="stop3759" />
      <stop
         style="stop-color:#ffffff;stop-opacity:1;"
         offset="1"
         id="stop3761" />
    </linearGradient>
    <linearGradient
       inkscape:collect="always"
       xlink:href="#linearGradient3757"
       id="linearGradient3763"
       x1="160"
       y1="256"
       x2="96"
       y2="1.1368684e-13"
       gradientUnits="userSpaceOnUse"
       gradientTransform="translate(0,796.36218)" />
    <linearGradient
       inkscape:collect="always"
       xlink:href="#linearGradient3767"
       id="linearGradient3777"
       gradientUnits="userSpaceOnUse"
       x1="192"
       y1="1052.3622"
       x2="128"
       y2="796.36218" />
    <filter
       inkscape:collect="always"
       id="filter3843">
      <feGaussianBlur
         inkscape:collect="always"
         stdDeviation="2.5599998"
         id="feGaussianBlur3845" />
    </filter>
    <filter
       inkscape:collect="always"
       id="filter3918">
      <feGaussianBlur
         inkscape:collect="always"
         stdDeviation="1.4400153"
         id="feGaussianBlur3920" />
    </filter>
    <filter
       inkscape:collect="always"
       id="filter3946"
       x="-0.10097902"
       width="1.201958"
       y="-0.097223884"
       height="1.1944478">
      <feGaussianBlur
         inkscape:collect="always"
         stdDeviation="1.9936494"
         id="feGaussianBlur3948" />
    </filter>
    <clipPath
       clipPathUnits="userSpaceOnUse"
       id="clipPath4014">
      <path
         transform="matrix(1.0597977,0,0,1.0598355,26.74286,852.60303)"
         d="m -96,80 a 48,48 0 1 1 -96,0 48,48 0 1 1 96,0 z"
         sodipodi:ry="48"
         sodipodi:rx="48"
         sodipodi:cy="80"
         sodipodi:cx="-144"
         id="path4016"
         style="fill:none;stroke:none"
         sodipodi:type="arc" />
    </clipPath>
    <linearGradient
       inkscape:collect="always"
       xlink:href="#linearGradient3870"
       id="linearGradient4397"
       x1="126.02489"
       y1="857.37152"
       x2="160.92307"
       y2="962.6665"
       gradientUnits="userSpaceOnUse" />
    <filter
       inkscape:collect="always"
       id="filter4429">
      <feGaussianBlur
         inkscape:collect="always"
         stdDeviation="1.7848006"
         id="feGaussianBlur4431" />
    </filter>
    <mask
       maskUnits="userSpaceOnUse"
       id="mask4443">
      <rect
         ry="55.502781"
         y="9.0133085"
         x="9.0132904"
         height="237.97342"
         width="237.97342"
         id="rect4445"
         style="fill:#4b5468;fill-opacity:1;stroke:none" />
    </mask>
  </defs>
  <sodipodi:namedview
     id="base"
     pagecolor="#000000"
     bordercolor="#666666"
     borderopacity="1.0"
     inkscape:pageopacity="1"
     inkscape:pageshadow="2"
     inkscape:zoom="2"
     inkscape:cx="-18.759663"
     inkscape:cy="116.29522"
     inkscape:document-units="px"
     inkscape:current-layer="layer1"
     showgrid="false"
     inkscape:window-width="1731"
     inkscape:window-height="1092"
     inkscape:window-x="246"
     inkscape:window-y="231"
     inkscape:window-maximized="0"
     showborder="true"
     inkscape:showpageshadow="false">
    <inkscape:grid
       type="xygrid"
       id="grid2985"
       empspacing="16"
       visible="true"
       enabled="true"
       snapvisiblegridlinesonly="true" />
  </sodipodi:namedview>
  <metadata
     id="metadata7">
    <rdf:RDF>
      <cc:Work
         rdf:about="">
        <dc:format>image/svg+xml</dc:format>
        <dc:type
           rdf:resource="http://purl.org/dc/dcmitype/StillImage" />
        <dc:title></dc:title>
      </cc:Work>
    </rdf:RDF>
  </metadata>
  <g
     inkscape:label="RGB"
     inkscape:groupmode="layer"
     id="layer1"
     transform="translate(0,-796.36218)"
     style="display:inline">
    <g
       id="background"
       style="opacity:0.50431064">
      <rect
         y="796.36218"
         x="0"
         height="255.99998"
         width="255.99998"
         id="rect2987"
         style="fill:url(#linearGradient3763);fill-opacity:1;stroke:none" />
      <rect
         style="fill:none;stroke:url(#linearGradient3777);stroke-width:4;stroke-linejoin:round;stroke-miterlimit:4;stroke-opacity:1;stroke-dasharray:none;filter:url(#filter3843)"
         id="rect3775"
         width="255.99998"
         height="255.99998"
         x="0"
         y="796.36218" />
    </g>
    <g
       id="screws">
      <g
         style="opacity:0.74137932"
         transform="matrix(0.18359747,0,0,0.18359747,36.448704,637.59976)"
         clip-path="url(#clipPath4014)"
         id="screw">
        <path
           transform="matrix(1.0597977,0,0,1.0598355,26.74286,852.60303)"
           d="m -96,80 a 48,48 0 1 1 -96,0 48,48 0 1 1 96,0 z"
           sodipodi:ry="48"
           sodipodi:rx="48"
           sodipodi:cy="80"
           sodipodi:cx="-144"
           id="path3868"
           style="fill:#000000;fill-opacity:1;stroke:none"
           sodipodi:type="arc" />
        <path
           sodipodi:type="star"
           style="opacity:0.84051723;fill:none;stroke:#ffffff;stroke-width:12.96095848;stroke-miterlimit:2.70000005;stroke-opacity:1;stroke-dasharray:none;filter:url(#filter3946)"
           id="path3928"
           sodipodi:sides="6"
           sodipodi:cx="-156.42857"
           sodipodi:cy="56.357143"
           sodipodi:r1="25.063694"
           sodipodi:r2="21.705795"
           sodipodi:arg1="0.71480857"
           sodipodi:arg2="1.2384073"
           inkscape:flatsided="true"
           inkscape:rounded="0"
           inkscape:randomized="0"
           d="m -137.5,72.785715 -23.69185,8.178337 -18.92857,-16.428571 4.76328,-24.606909 23.69184,-8.178338 18.92857,16.428571 z"
           transform="matrix(0.85253986,0,0,0.82858611,8.7435849,893.78058)" />
        <path
           sodipodi:type="star"
           style="fill:#000000;fill-opacity:1;stroke:none"
           id="path3926"
           sodipodi:sides="6"
           sodipodi:cx="-156.42857"
           sodipodi:cy="56.357143"
           sodipodi:r1="25.063694"
           sodipodi:r2="21.705795"
           sodipodi:arg1="0.71480857"
           sodipodi:arg2="1.2384073"
           inkscape:flatsided="true"
           inkscape:rounded="0"
           inkscape:randomized="0"
           d="m -137.5,72.785715 -23.69185,8.178337 -18.92857,-16.428571 4.76328,-24.606909 23.69184,-8.178338 18.92857,16.428571 z"
           transform="translate(30.560565,881.03273)" />
        <path
           sodipodi:type="arc"
           style="opacity:0.91810345;fill:none;stroke:#ffffff;stroke-width:7.45964003;stroke-miterlimit:4;stroke-opacity:1;stroke-dasharray:none;filter:url(#filter3918)"
           id="path3880"
           sodipodi:cx="-144"
           sodipodi:cy="80"
           sodipodi:rx="48"
           sodipodi:ry="48"
           d="m -96,80 a 48,48 0 1 1 -96,0 48,48 0 1 1 96,0 z"
           transform="matrix(1.1002868,0,0,1.0902033,35.249673,852.85011)" />
      </g>
      <use
         height="256"
         width="256"
         transform="translate(2.4e-6,229.32002)"
         id="use4018"
         xlink:href="#screw"
         y="0"
         x="0" />
      <use
         height="256"
         width="256"
         transform="translate(229.32069,-8.9000002e-6)"
         id="use4050"
         xlink:href="#screw"
         y="0"
         x="0" />
      <use
         height="256"
         width="256"
         transform="translate(229.32069,229.32002)"
         id="use4052"
         xlink:href="#screw"
         y="0"
         x="0" />
    </g>
    <rect
       ry="55.502781"
       y="805.37549"
       x="9.0132904"
       height="237.97342"
       width="237.97342"
       id="rect4389"
       style="opacity:0.74568936;fill:none;stroke:url(#linearGradient4397);stroke-width:3;stroke-linecap:square;stroke-linejoin:round;stroke-miterlimit:4;stroke-opacity:1;stroke-dasharray:none;filter:url(#filter4429)" />
    <rect
       style="fill:#4b5468;fill-opacity:1;stroke:none"
       id="screen"
       width="237.97342"
       height="237.97342"
       x="9.0132904"
       y="805.37549"
       ry="55.502781" />
    <path
       id="grid"
       style="fill:none;stroke:#000000;stroke-width:0.30000001;stroke-miterlimit:4;stroke-opacity:1;stroke-dasharray:none"
       d="m 29.15,1003.4622 19.75,0 0,19.75 -19.75,0 z m 0,0 19.75,0 0,19.75 -19.75,0 z m 19.75,0 19.749999,0 0,19.75 -19.749999,0 z m 19.749999,0 19.75,0 0,19.75 -19.75,0 z m 19.75,0 19.750001,0 0,19.75 -19.750001,0 z m 19.750001,0 19.75,0 0,19.75 -19.75,0 z m 19.75,0 19.75,0 0,19.75 -19.75,0 z m 19.75,0 19.75,0 0,19.75 -19.75,0 z m 19.75,0 19.75,0 0,19.75 -19.75,0 z m 19.75,0 19.75,0 0,19.75 -19.75,0 z m 19.75,0 19.75,0 0,19.75 -19.75,0 z m -177.75,-19.75007 19.75,0 0,19.75007 -19.75,0 z m 0,0 19.75,0 0,19.75007 -19.75,0 z m 19.75,0 19.749999,0 0,19.75007 -19.749999,0 z m 19.749999,0 19.75,0 0,19.75007 -19.75,0 z m 19.75,0 19.750001,0 0,19.75007 -19.750001,0 z m 19.750001,0 19.75,0 0,19.75007 -19.75,0 z m 19.75,0 19.75,0 0,19.75007 -19.75,0 z m 19.75,0 19.75,0 0,19.75007 -19.75,0 z m 19.75,0 19.75,0 0,19.75007 -19.75,0 z m 19.75,0 19.75,0 0,19.75007 -19.75,0 z m 19.75,0 19.75,0 0,19.75007 -19.75,0 z m -177.75,-19.75 19.75,0 0,19.75 -19.75,0 z m 0,0 19.75,0 0,19.75 -19.75,0 z m 19.75,0 19.749999,0 0,19.75 -19.749999,0 z m 19.749999,0 19.75,0 0,19.75 -19.75,0 z m 19.75,0 19.750001,0 0,19.75 -19.750001,0 z m 19.750001,0 19.75,0 0,19.75 -19.75,0 z m 19.75,0 19.75,0 0,19.75 -19.75,0 z m 19.75,0 19.75,0 0,19.75 -19.75,0 z m 19.75,0 19.75,0 0,19.75 -19.75,0 z m 19.75,0 19.75,0 0,19.75 -19.75,0 z m 19.75,0 19.75,0 0,19.75 -19.75,0 z m -177.75,-19.75 19.75,0 0,19.75 -19.75,0 z m 0,0 19.75,0 0,19.75 -19.75,0 z m 19.75,0 19.749999,0 0,19.75 -19.749999,0 z m 19.749999,0 19.75,0 0,19.75 -19.75,0 z m 19.75,0 19.750001,0 0,19.75 -19.750001,0 z m 19.750001,0 19.75,0 0,19.75 -19.75,0 z m 19.75,0 19.75,0 0,19.75 -19.75,0 z m 19.75,0 19.75,0 0,19.75 -19.75,0 z m 19.75,0 19.75,0 0,19.75 -19.75,0 z m 19.75,0 19.75,0 0,19.75 -19.75,0 z m 19.75,0 19.75,0 0,19.75 -19.75,0 z m -177.75,-19.75 19.75,0 0,19.75 -19.75,0 z m 0,0 19.75,0 0,19.75 -19.75,0 z m 19.75,0 19.749999,0 0,19.75 -19.749999,0 z m 19.749999,0 19.75,0 0,19.75 -19.75,0 z m 19.75,0 19.750001,0 0,19.75 -19.750001,0 z m 19.750001,0 19.75,0 0,19.75 -19.75,0 z m 19.75,0 19.75,0 0,19.75 -19.75,0 z m 19.75,0 19.75,0 0,19.75 -19.75,0 z m 19.75,0 19.75,0 0,19.75 -19.75,0 z m 19.75,0 19.75,0 0,19.75 -19.75,0 z m 19.75,0 19.75,0 0,19.75 -19.75,0 z m -177.75,-19.75 19.75,0 0,19.75 -19.75,0 z m 0,0 19.75,0 0,19.75 -19.75,0 z m 19.75,0 19.749999,0 0,19.75 -19.749999,0 z m 19.749999,0 19.75,0 0,19.75 -19.75,0 z m 19.75,0 19.750001,0 0,19.75 -19.750001,0 z m 19.750001,0 19.75,0 0,19.75 -19.75,0 z m 19.75,0 19.75,0 0,19.75 -19.75,0 z m 19.75,0 19.75,0 0,19.75 -19.75,0 z m 19.75,0 19.75,0 0,19.75 -19.75,0 z m 19.75,0 19.75,0 0,19.75 -19.75,0 z m 19.75,0 19.75,0 0,19.75 -19.75,0 z m -177.75,-19.75 19.75,0 0,19.75 -19.75,0 z m 0,0 19.75,0 0,19.75 -19.75,0 z m 19.75,0 19.749999,0 0,19.75 -19.749999,0 z m 19.749999,0 19.75,0 0,19.75 -19.75,0 z m 19.75,0 19.750001,0 0,19.75 -19.750001,0 z m 19.750001,0 19.75,0 0,19.75 -19.75,0 z m 19.75,0 19.75,0 0,19.75 -19.75,0 z m 19.75,0 19.75,0 0,19.75 -19.75,0 z m 19.75,0 19.75,0 0,19.75 -19.75,0 z m 19.75,0 19.75,0 0,19.75 -19.75,0 z m 19.75,0 19.75,0 0,19.75 -19.75,0 z m -177.75,-19.75002 19.75,0 0,19.75002 -19.75,0 z m 0,0 19.75,0 0,19.75002 -19.75,0 z m 19.75,0 19.749999,0 0,19.75002 -19.749999,0 z m 19.749999,0 19.75,0 0,19.75002 -19.75,0 z m 19.75,0 19.750001,0 0,19.75002 -19.750001,0 z m 19.750001,0 19.75,0 0,19.75002 -19.75,0 z m 19.75,0 19.75,0 0,19.75002 -19.75,0 z m 19.75,0 19.75,0 0,19.75002 -19.75,0 z m 19.75,0 19.75,0 0,19.75002 -19.75,0 z m 19.75,0 19.75,0 0,19.75002 -19.75,0 z m 19.75,0 19.75,0 0,19.75002 -19.75,0 z m -177.75,-19.75 19.75,0 0,19.75 -19.75,0 z m 0,0 19.75,0 0,19.75 -19.75,0 z m 19.75,0 19.749999,0 0,19.75 -19.749999,0 z m 19.749999,0 19.75,0 0,19.75 -19.75,0 z m 19.75,0 19.750001,0 0,19.75 -19.750001,0 z m 19.750001,0 19.75,0 0,19.75 -19.75,0 z m 19.75,0 19.75,0 0,19.75 -19.75,0 z m 19.75,0 19.75,0 0,19.75 -19.75,0 z m 19.75,0 19.75,0 0,19.75 -19.75,0 z m 19.75,0 19.75,0 0,19.75 -19.75,0 z m 19.75,0 19.75,0 0,19.75 -19.75,0 z m -177.75,-19.75 19.75,0 0,19.75 -19.75,0 z m 0,0 19.75,0 0,19.75 -19.75,0 z m 19.75,0 19.749999,0 0,19.75 -19.749999,0 z m 19.749999,0 19.75,0 0,19.75 -19.75,0 z m 19.75,0 19.750001,0 0,19.75 -19.750001,0 z m 19.750001,0 19.75,0 0,19.75 -19.75,0 z m 19.75,0 19.75,0 0,19.75 -19.75,0 z m 19.75,0 19.75,0 0,19.75 -19.75,0 z m 19.75,0 19.75,0 0,19.75 -19.75,0 z m 19.75,0 19.75,0 0,19.75 -19.75,0 z m 19.75,0 19.75,0 0,19.75 -19.75,0 z"
       inkscape:connector-curvature="0" />
    <path
       style="opacity:0.41810345;fill:#000000;fill-opacity:1;stroke:none"
       d="m -55.5,-37.5 c 89.5,-17.5 342,-5.5 342,-5.5 0,0 169.76755,86.551186 29.5,81.5 C 135.5,32 40.750634,28.476391 5.5,136 -29.750634,243.52361 -53,-37.5 -53,-37.5"
       id="path4435"
       inkscape:connector-curvature="0"
       transform="translate(0,796.36218)"
       sodipodi:nodetypes="ccszc"
       mask="url(#mask4443)" />
  </g>
  <g
     inkscape:groupmode="layer"
     id="layer2"
     inkscape:label="Alpha"
     style="display:none">
    <rect
       transform="translate(0,-796.36218)"
       ry="55.502781"
       y="805.37549"
       x="9.0132904"
       height="237.97342"
       width="237.97342"
       id="rect3168"
       style="fill:#ffffff;fill-opacity:1;stroke:none;display:inline" />
  </g>
</svg>
